<mxfile host="65bd71144e">
    <diagram id="j7Hxi0_EYqVj6JFaJIPQ" name="Page-1">
        <mxGraphModel dx="1531" dy="974" grid="1" gridSize="10" guides="1" tooltips="1" connect="1" arrows="1" fold="1" page="1" pageScale="1" pageWidth="827" pageHeight="1169" math="0" shadow="0">
            <root>
                <mxCell id="0"/>
                <mxCell id="1" parent="0"/>
                <mxCell id="102" value="" style="group" vertex="1" connectable="0" parent="1">
                    <mxGeometry x="36" y="70" width="335" height="410" as="geometry"/>
                </mxCell>
                <mxCell id="15" value="" style="rounded=1;whiteSpace=wrap;html=1;" vertex="1" parent="102">
                    <mxGeometry x="37.5" y="330" width="210" height="50" as="geometry"/>
                </mxCell>
                <mxCell id="13" value="" style="rounded=0;whiteSpace=wrap;html=1;" vertex="1" parent="102">
                    <mxGeometry width="335" height="410" as="geometry"/>
                </mxCell>
                <mxCell id="4" value="" style="rounded=1;whiteSpace=wrap;html=1;fillColor=#60a917;fontColor=#ffffff;strokeColor=#2D7600;" vertex="1" parent="102">
                    <mxGeometry x="22.5" y="10" width="280" height="10" as="geometry"/>
                </mxCell>
                <mxCell id="5" value="" style="rounded=1;whiteSpace=wrap;html=1;fillColor=#1ba1e2;fontColor=#ffffff;strokeColor=#006EAF;" vertex="1" parent="102">
                    <mxGeometry x="22.5" y="30" width="280" height="30" as="geometry"/>
                </mxCell>
                <mxCell id="6" value="" style="rounded=1;whiteSpace=wrap;html=1;fillColor=#e51400;fontColor=#ffffff;strokeColor=#B20000;" vertex="1" parent="102">
                    <mxGeometry x="272.5" y="72" width="50" height="50" as="geometry"/>
                </mxCell>
                <mxCell id="7" value="" style="rounded=1;whiteSpace=wrap;html=1;fillColor=#fa6800;fontColor=#000000;strokeColor=#C73500;" vertex="1" parent="102">
                    <mxGeometry x="22.5" y="70" width="240" height="230" as="geometry"/>
                </mxCell>
                <mxCell id="8" value="" style="rounded=1;whiteSpace=wrap;html=1;fillColor=#a20025;fontColor=#ffffff;strokeColor=#6F0000;" vertex="1" parent="102">
                    <mxGeometry x="22.5" y="380" width="297.5" height="20" as="geometry"/>
                </mxCell>
                <mxCell id="11" value="" style="rounded=1;whiteSpace=wrap;html=1;fillColor=#e51400;fontColor=#ffffff;strokeColor=#B20000;" vertex="1" parent="102">
                    <mxGeometry x="272.5" y="129" width="50" height="50" as="geometry"/>
                </mxCell>
                <mxCell id="12" value="" style="rounded=1;whiteSpace=wrap;html=1;fillColor=#e51400;fontColor=#ffffff;strokeColor=#B20000;" vertex="1" parent="102">
                    <mxGeometry x="272.5" y="186" width="50" height="50" as="geometry"/>
                </mxCell>
                <mxCell id="16" value="" style="rounded=1;whiteSpace=wrap;html=1;fillColor=#e51400;fontColor=#ffffff;strokeColor=#B20000;" vertex="1" parent="102">
                    <mxGeometry x="272.5" y="244" width="50" height="50" as="geometry"/>
                </mxCell>
                <mxCell id="37" value="" style="group;fillColor=#6d8764;fontColor=#ffffff;strokeColor=#3A5431;" vertex="1" connectable="0" parent="102">
                    <mxGeometry x="32.5" y="90" width="210" height="60" as="geometry"/>
                </mxCell>
                <mxCell id="9" value="" style="rounded=1;whiteSpace=wrap;html=1;" vertex="1" parent="37">
                    <mxGeometry width="210" height="60" as="geometry"/>
                </mxCell>
                <mxCell id="22" value="" style="group" vertex="1" connectable="0" parent="37">
                    <mxGeometry x="149.18245800521908" y="3.3174580052190947" width="51.15508398956183" height="51.682541994780905" as="geometry"/>
                </mxCell>
                <mxCell id="18" value="" style="rounded=1;whiteSpace=wrap;html=1;" vertex="1" parent="22">
                    <mxGeometry x="0.8175419947809246" y="1.6825419947809053" width="50" height="50" as="geometry"/>
                </mxCell>
                <mxCell id="20" value="" style="line;strokeWidth=2;html=1;rotation=-45;" vertex="1" parent="22">
                    <mxGeometry x="-3.9224580052190845" y="20.612541994780912" width="60" height="10.93" as="geometry"/>
                </mxCell>
                <mxCell id="21" value="" style="line;strokeWidth=2;html=1;rotation=45;" vertex="1" parent="22">
                    <mxGeometry x="-4.9224580052190845" y="19.612541994780912" width="60" height="10.93" as="geometry"/>
                </mxCell>
                <mxCell id="32" value="" style="rounded=1;whiteSpace=wrap;html=1;" vertex="1" parent="37">
                    <mxGeometry x="9" y="6.319999999999993" width="110" height="16.68" as="geometry"/>
                </mxCell>
                <mxCell id="33" value="" style="rounded=1;whiteSpace=wrap;html=1;" vertex="1" parent="37">
                    <mxGeometry x="9" y="29" width="131" height="21" as="geometry"/>
                </mxCell>
                <mxCell id="38" value="" style="group" vertex="1" connectable="0" parent="102">
                    <mxGeometry x="32.5" y="160" width="210" height="60" as="geometry"/>
                </mxCell>
                <mxCell id="39" value="" style="rounded=1;whiteSpace=wrap;html=1;" vertex="1" parent="38">
                    <mxGeometry width="210" height="60" as="geometry"/>
                </mxCell>
                <mxCell id="40" value="" style="group" vertex="1" connectable="0" parent="38">
                    <mxGeometry x="149.18245800521908" y="3.3174580052190947" width="51.15508398956183" height="51.682541994780905" as="geometry"/>
                </mxCell>
                <mxCell id="41" value="" style="rounded=1;whiteSpace=wrap;html=1;" vertex="1" parent="40">
                    <mxGeometry x="0.8175419947809246" y="1.6825419947809053" width="50" height="50" as="geometry"/>
                </mxCell>
                <mxCell id="42" value="" style="line;strokeWidth=2;html=1;rotation=-45;" vertex="1" parent="40">
                    <mxGeometry x="-3.9224580052190845" y="20.612541994780912" width="60" height="10.93" as="geometry"/>
                </mxCell>
                <mxCell id="43" value="" style="line;strokeWidth=2;html=1;rotation=45;" vertex="1" parent="40">
                    <mxGeometry x="-4.9224580052190845" y="19.612541994780912" width="60" height="10.93" as="geometry"/>
                </mxCell>
                <mxCell id="44" value="" style="rounded=1;whiteSpace=wrap;html=1;" vertex="1" parent="38">
                    <mxGeometry x="9" y="6.319999999999993" width="110" height="16.68" as="geometry"/>
                </mxCell>
                <mxCell id="45" value="" style="rounded=1;whiteSpace=wrap;html=1;" vertex="1" parent="38">
                    <mxGeometry x="9" y="29" width="131" height="21" as="geometry"/>
                </mxCell>
                <mxCell id="46" value="" style="group" vertex="1" connectable="0" parent="102">
                    <mxGeometry x="32.5" y="230" width="210" height="60" as="geometry"/>
                </mxCell>
                <mxCell id="47" value="" style="rounded=1;whiteSpace=wrap;html=1;" vertex="1" parent="46">
                    <mxGeometry width="210" height="60" as="geometry"/>
                </mxCell>
                <mxCell id="48" value="" style="group" vertex="1" connectable="0" parent="46">
                    <mxGeometry x="149.18245800521908" y="3.3174580052190947" width="51.15508398956183" height="51.682541994780905" as="geometry"/>
                </mxCell>
                <mxCell id="49" value="" style="rounded=1;whiteSpace=wrap;html=1;" vertex="1" parent="48">
                    <mxGeometry x="0.8175419947809246" y="1.6825419947809053" width="50" height="50" as="geometry"/>
                </mxCell>
                <mxCell id="50" value="" style="line;strokeWidth=2;html=1;rotation=-45;" vertex="1" parent="48">
                    <mxGeometry x="-3.9224580052190845" y="20.612541994780912" width="60" height="10.93" as="geometry"/>
                </mxCell>
                <mxCell id="51" value="" style="line;strokeWidth=2;html=1;rotation=45;" vertex="1" parent="48">
                    <mxGeometry x="-4.9224580052190845" y="19.612541994780912" width="60" height="10.93" as="geometry"/>
                </mxCell>
                <mxCell id="52" value="" style="rounded=1;whiteSpace=wrap;html=1;" vertex="1" parent="46">
                    <mxGeometry x="9" y="6.319999999999993" width="110" height="16.68" as="geometry"/>
                </mxCell>
                <mxCell id="53" value="" style="rounded=1;whiteSpace=wrap;html=1;" vertex="1" parent="46">
                    <mxGeometry x="9" y="29" width="131" height="21" as="geometry"/>
                </mxCell>
                <mxCell id="87" value="" style="rounded=1;whiteSpace=wrap;html=1;fontSize=10;fillColor=#e3c800;fontColor=#000000;strokeColor=#B09500;" vertex="1" parent="102">
                    <mxGeometry x="22.5" y="310" width="300" height="60" as="geometry"/>
                </mxCell>
                <mxCell id="267" value="" style="group" vertex="1" connectable="0" parent="1">
                    <mxGeometry x="500" y="1060" width="320" height="101.03" as="geometry"/>
                </mxCell>
                <mxCell id="104" value="" style="group;fillColor=#bac8d3;strokeColor=#23445d;" vertex="1" connectable="0" parent="267">
                    <mxGeometry width="320" height="101.03" as="geometry"/>
                </mxCell>
                <mxCell id="63" value="" style="rounded=0;whiteSpace=wrap;html=1;" vertex="1" parent="104">
                    <mxGeometry y="5.51" width="320" height="90" as="geometry"/>
                </mxCell>
                <mxCell id="66" value="" style="rounded=1;whiteSpace=wrap;html=1;fillColor=#60a917;fontColor=#ffffff;strokeColor=#2D7600;" vertex="1" parent="104">
                    <mxGeometry x="10" y="9" width="10" height="11" as="geometry"/>
                </mxCell>
                <mxCell id="67" value="" style="rounded=1;whiteSpace=wrap;html=1;fillColor=#1ba1e2;fontColor=#ffffff;strokeColor=#006EAF;" vertex="1" parent="104">
                    <mxGeometry x="10" y="23" width="10" height="11" as="geometry"/>
                </mxCell>
                <mxCell id="68" value="" style="rounded=1;whiteSpace=wrap;html=1;fillColor=#a20025;fontColor=#ffffff;strokeColor=#6F0000;" vertex="1" parent="104">
                    <mxGeometry x="10" y="37" width="10" height="11" as="geometry"/>
                </mxCell>
                <mxCell id="69" value="" style="rounded=1;whiteSpace=wrap;html=1;fillColor=#e51400;fontColor=#ffffff;strokeColor=#B20000;" vertex="1" parent="104">
                    <mxGeometry x="10" y="59" width="10" height="11" as="geometry"/>
                </mxCell>
                <mxCell id="103" value="" style="group" vertex="1" connectable="0" parent="104">
                    <mxGeometry x="30" y="9" width="170" height="71" as="geometry"/>
                </mxCell>
                <mxCell id="70" value="&lt;font style=&quot;font-size: 10px;&quot;&gt;Endereço&lt;/font&gt;" style="rounded=1;whiteSpace=wrap;html=1;" vertex="1" parent="103">
                    <mxGeometry y="1" width="70" height="10" as="geometry"/>
                </mxCell>
                <mxCell id="72" value="&lt;font style=&quot;font-size: 10px;&quot;&gt;Header&lt;/font&gt;" style="rounded=1;whiteSpace=wrap;html=1;" vertex="1" parent="103">
                    <mxGeometry y="14" width="70" height="10" as="geometry"/>
                </mxCell>
                <mxCell id="73" value="&lt;span style=&quot;font-size: 10px;&quot;&gt;Paginação&lt;/span&gt;" style="rounded=1;whiteSpace=wrap;html=1;" vertex="1" parent="103">
                    <mxGeometry y="28" width="70" height="10" as="geometry"/>
                </mxCell>
                <mxCell id="74" value="&lt;span style=&quot;font-size: 10px;&quot;&gt;Ads ou destaques&lt;/span&gt;" style="rounded=1;whiteSpace=wrap;html=1;" vertex="1" parent="103">
                    <mxGeometry y="42" width="70" height="29" as="geometry"/>
                </mxCell>
                <mxCell id="75" value="" style="rounded=1;whiteSpace=wrap;html=1;fillColor=#fa6800;fontColor=#000000;strokeColor=#C73500;" vertex="1" parent="103">
                    <mxGeometry x="80" width="10" height="11" as="geometry"/>
                </mxCell>
                <mxCell id="76" value="&lt;font style=&quot;font-size: 10px;&quot;&gt;Area de posts&lt;/font&gt;" style="rounded=1;whiteSpace=wrap;html=1;" vertex="1" parent="103">
                    <mxGeometry x="100" y="0.5" width="70" height="10" as="geometry"/>
                </mxCell>
                <mxCell id="81" value="" style="group" vertex="1" connectable="0" parent="103">
                    <mxGeometry x="80" y="13.5" width="10" height="10.5" as="geometry"/>
                </mxCell>
                <mxCell id="82" value="" style="rounded=1;whiteSpace=wrap;html=1;" vertex="1" parent="81">
                    <mxGeometry x="0.15981637229796036" y="0.34183092129995374" width="9.77419957128845" height="10.158169078700046" as="geometry"/>
                </mxCell>
                <mxCell id="83" value="" style="line;strokeWidth=2;html=1;rotation=-45;" vertex="1" parent="81">
                    <mxGeometry x="-0.7667777470601866" y="4.187713734495793" width="11.729039485546142" height="2.2205757606038303" as="geometry"/>
                </mxCell>
                <mxCell id="84" value="" style="line;strokeWidth=2;html=1;rotation=45;" vertex="1" parent="81">
                    <mxGeometry x="-0.9622617384859556" y="3.984550352921792" width="11.729039485546142" height="2.2205757606038303" as="geometry"/>
                </mxCell>
                <mxCell id="86" value="&lt;font style=&quot;font-size: 10px;&quot;&gt;Imagem&lt;br&gt;&lt;/font&gt;" style="rounded=1;whiteSpace=wrap;html=1;" vertex="1" parent="103">
                    <mxGeometry x="100" y="14.5" width="70" height="10" as="geometry"/>
                </mxCell>
                <mxCell id="88" value="" style="rounded=1;whiteSpace=wrap;html=1;fillColor=#e3c800;fontColor=#000000;strokeColor=#B09500;" vertex="1" parent="103">
                    <mxGeometry x="80" y="27" width="10" height="11" as="geometry"/>
                </mxCell>
                <mxCell id="89" value="&lt;font style=&quot;font-size: 10px;&quot;&gt;Rodapé&lt;br&gt;&lt;/font&gt;" style="rounded=1;whiteSpace=wrap;html=1;" vertex="1" parent="103">
                    <mxGeometry x="100" y="28.5" width="70" height="10" as="geometry"/>
                </mxCell>
                <mxCell id="203" value="&lt;font style=&quot;font-size: 9px;&quot;&gt;Post Detalhado&lt;/font&gt;" style="rounded=1;whiteSpace=wrap;html=1;" vertex="1" parent="103">
                    <mxGeometry x="100" y="42" width="70" height="10" as="geometry"/>
                </mxCell>
                <mxCell id="181" value="" style="rounded=1;whiteSpace=wrap;html=1;fillColor=#647687;fontColor=#ffffff;strokeColor=#314354;" vertex="1" parent="103">
                    <mxGeometry x="80" y="41.5" width="10" height="11" as="geometry"/>
                </mxCell>
                <mxCell id="105" value="Legendas" style="rounded=1;whiteSpace=wrap;html=1;fontSize=10;" vertex="1" parent="104">
                    <mxGeometry x="110" y="70" width="90" height="10" as="geometry"/>
                </mxCell>
                <mxCell id="254" value="" style="rounded=1;whiteSpace=wrap;html=1;fillColor=#fad9d5;strokeColor=#ae4132;" vertex="1" parent="104">
                    <mxGeometry x="209" y="9" width="10" height="11" as="geometry"/>
                </mxCell>
                <mxCell id="255" value="&lt;font style=&quot;font-size: 10px;&quot;&gt;Titulo post&lt;/font&gt;" style="rounded=1;whiteSpace=wrap;html=1;" vertex="1" parent="104">
                    <mxGeometry x="229" y="9.5" width="70" height="10" as="geometry"/>
                </mxCell>
                <mxCell id="260" value="" style="rounded=1;whiteSpace=wrap;html=1;fillColor=#b0e3e6;strokeColor=#0e8088;" vertex="1" parent="104">
                    <mxGeometry x="209" y="37.5" width="10" height="11" as="geometry"/>
                </mxCell>
                <mxCell id="261" value="&lt;font style=&quot;font-size: 10px;&quot;&gt;Post&lt;br&gt;&lt;/font&gt;" style="rounded=1;whiteSpace=wrap;html=1;" vertex="1" parent="104">
                    <mxGeometry x="229" y="38" width="70" height="10" as="geometry"/>
                </mxCell>
                <mxCell id="262" value="" style="rounded=1;whiteSpace=wrap;html=1;fillColor=#bac8d3;strokeColor=#23445d;" vertex="1" parent="104">
                    <mxGeometry x="209" y="51.5" width="10" height="11" as="geometry"/>
                </mxCell>
                <mxCell id="263" value="&lt;font style=&quot;font-size: 10px;&quot;&gt;Carrosel&lt;/font&gt;" style="rounded=1;whiteSpace=wrap;html=1;" vertex="1" parent="104">
                    <mxGeometry x="229" y="52" width="70" height="10" as="geometry"/>
                </mxCell>
                <mxCell id="264" value="" style="shape=step;perimeter=stepPerimeter;whiteSpace=wrap;html=1;fixedSize=1;fontSize=9;size=18;rotation=-181;fillColor=#bac8d3;strokeColor=#23445d;" vertex="1" parent="104">
                    <mxGeometry x="207.59" y="70.05" width="8" height="11.04" as="geometry"/>
                </mxCell>
                <mxCell id="266" value="&lt;font style=&quot;font-size: 10px;&quot;&gt;Navegacao&lt;/font&gt;" style="rounded=1;whiteSpace=wrap;html=1;" vertex="1" parent="104">
                    <mxGeometry x="229" y="71.09" width="70" height="10" as="geometry"/>
                </mxCell>
                <mxCell id="258" value="" style="rounded=1;whiteSpace=wrap;html=1;fillColor=#fad7ac;strokeColor=#b46504;" vertex="1" parent="267">
                    <mxGeometry x="209" y="24" width="10" height="11" as="geometry"/>
                </mxCell>
                <mxCell id="259" value="&lt;span style=&quot;font-size: 10px;&quot;&gt;Descrição&lt;/span&gt;" style="rounded=1;whiteSpace=wrap;html=1;" vertex="1" parent="267">
                    <mxGeometry x="229" y="24.5" width="70" height="10" as="geometry"/>
                </mxCell>
                <mxCell id="271" value="" style="group" vertex="1" connectable="0" parent="1">
                    <mxGeometry x="456" y="70" width="335" height="410" as="geometry"/>
                </mxCell>
                <mxCell id="106" value="" style="group;fillColor=#fa6800;fontColor=#000000;strokeColor=#C73500;" vertex="1" connectable="0" parent="271">
                    <mxGeometry width="335" height="410" as="geometry"/>
                </mxCell>
                <mxCell id="108" value="" style="rounded=0;whiteSpace=wrap;html=1;" vertex="1" parent="106">
                    <mxGeometry width="335" height="410" as="geometry"/>
                </mxCell>
                <mxCell id="268" value="" style="group" vertex="1" connectable="0" parent="106">
                    <mxGeometry x="22.5" y="10" width="304.5" height="370" as="geometry"/>
                </mxCell>
                <mxCell id="109" value="" style="rounded=1;whiteSpace=wrap;html=1;fillColor=#60a917;fontColor=#ffffff;strokeColor=#2D7600;" vertex="1" parent="268">
                    <mxGeometry width="280" height="10" as="geometry"/>
                </mxCell>
                <mxCell id="110" value="" style="rounded=1;whiteSpace=wrap;html=1;fillColor=#1ba1e2;fontColor=#ffffff;strokeColor=#006EAF;" vertex="1" parent="268">
                    <mxGeometry y="20" width="280" height="30" as="geometry"/>
                </mxCell>
                <mxCell id="144" value="" style="rounded=1;whiteSpace=wrap;html=1;fontSize=10;fillColor=#fa6800;fontColor=#000000;strokeColor=#C73500;" vertex="1" parent="268">
                    <mxGeometry x="26.25" y="70" width="237.5" height="300" as="geometry"/>
                </mxCell>
                <mxCell id="207" value="" style="rounded=0;whiteSpace=wrap;html=1;fontSize=9;fillColor=#fad7ac;strokeColor=#b46504;" vertex="1" parent="268">
                    <mxGeometry x="37.5" y="112" width="220" height="30" as="geometry"/>
                </mxCell>
                <mxCell id="205" value="" style="rounded=0;whiteSpace=wrap;html=1;fontSize=9;fillColor=#fad9d5;strokeColor=#ae4132;" vertex="1" parent="268">
                    <mxGeometry x="53.75" y="80" width="187.5" height="20" as="geometry"/>
                </mxCell>
                <mxCell id="209" value="" style="rounded=0;whiteSpace=wrap;html=1;fontSize=9;fillColor=#b0e3e6;strokeColor=#0e8088;" vertex="1" parent="268">
                    <mxGeometry x="37.5" y="150" width="220" height="80" as="geometry"/>
                </mxCell>
                <mxCell id="230" value="" style="rounded=1;whiteSpace=wrap;html=1;fontSize=9;fillColor=#bac8d3;strokeColor=#23445d;" vertex="1" parent="268">
                    <mxGeometry x="37.5" y="250" width="220" height="60" as="geometry"/>
                </mxCell>
                <mxCell id="236" value="" style="group" vertex="1" connectable="0" parent="268">
                    <mxGeometry x="40.502458005219154" y="254.15745800521915" width="51.15508398956183" height="51.682541994780905" as="geometry"/>
                </mxCell>
                <mxCell id="237" value="" style="rounded=1;whiteSpace=wrap;html=1;" vertex="1" parent="236">
                    <mxGeometry x="0.8175419947809246" y="1.6825419947809053" width="50" height="50" as="geometry"/>
                </mxCell>
                <mxCell id="238" value="" style="line;strokeWidth=2;html=1;rotation=-45;" vertex="1" parent="236">
                    <mxGeometry x="-3.9224580052190845" y="20.612541994780912" width="60" height="10.93" as="geometry"/>
                </mxCell>
                <mxCell id="239" value="" style="line;strokeWidth=2;html=1;rotation=45;" vertex="1" parent="236">
                    <mxGeometry x="-4.9224580052190845" y="19.612541994780912" width="60" height="10.93" as="geometry"/>
                </mxCell>
                <mxCell id="240" value="" style="group" vertex="1" connectable="0" parent="268">
                    <mxGeometry x="94.42245800521914" y="254.15745800521915" width="51.15508398956183" height="51.682541994780905" as="geometry"/>
                </mxCell>
                <mxCell id="241" value="" style="rounded=1;whiteSpace=wrap;html=1;" vertex="1" parent="240">
                    <mxGeometry x="0.8175419947809246" y="1.6825419947809053" width="50" height="50" as="geometry"/>
                </mxCell>
                <mxCell id="242" value="" style="line;strokeWidth=2;html=1;rotation=-45;" vertex="1" parent="240">
                    <mxGeometry x="-3.9224580052190845" y="20.612541994780912" width="60" height="10.93" as="geometry"/>
                </mxCell>
                <mxCell id="243" value="" style="line;strokeWidth=2;html=1;rotation=45;" vertex="1" parent="240">
                    <mxGeometry x="-4.9224580052190845" y="19.612541994780912" width="60" height="10.93" as="geometry"/>
                </mxCell>
                <mxCell id="248" value="" style="group" vertex="1" connectable="0" parent="268">
                    <mxGeometry x="200.50245800521918" y="254.31745800521918" width="51.15508398956183" height="51.682541994780905" as="geometry"/>
                </mxCell>
                <mxCell id="249" value="" style="rounded=1;whiteSpace=wrap;html=1;" vertex="1" parent="248">
                    <mxGeometry x="0.8175419947809246" y="1.6825419947809053" width="50" height="50" as="geometry"/>
                </mxCell>
                <mxCell id="250" value="" style="line;strokeWidth=2;html=1;rotation=-45;" vertex="1" parent="248">
                    <mxGeometry x="-3.9224580052190845" y="20.612541994780912" width="60" height="10.93" as="geometry"/>
                </mxCell>
                <mxCell id="251" value="" style="line;strokeWidth=2;html=1;rotation=45;" vertex="1" parent="248">
                    <mxGeometry x="-4.9224580052190845" y="19.612541994780912" width="60" height="10.93" as="geometry"/>
                </mxCell>
                <mxCell id="252" value="" style="shape=step;perimeter=stepPerimeter;whiteSpace=wrap;html=1;fixedSize=1;fontSize=9;fillColor=#bac8d3;strokeColor=#23445d;" vertex="1" parent="268">
                    <mxGeometry x="279.5" y="160" width="25" height="42" as="geometry"/>
                </mxCell>
                <mxCell id="244" value="" style="group" vertex="1" connectable="0" parent="271">
                    <mxGeometry x="170.00245800521918" y="263.99745800521913" width="51.15508398956183" height="51.682541994780905" as="geometry"/>
                </mxCell>
                <mxCell id="245" value="" style="rounded=1;whiteSpace=wrap;html=1;" vertex="1" parent="244">
                    <mxGeometry x="0.8175419947809246" y="1.6825419947809053" width="50" height="50" as="geometry"/>
                </mxCell>
                <mxCell id="246" value="" style="line;strokeWidth=2;html=1;rotation=-45;" vertex="1" parent="244">
                    <mxGeometry x="-3.9224580052190845" y="20.612541994780912" width="60" height="10.93" as="geometry"/>
                </mxCell>
                <mxCell id="247" value="" style="line;strokeWidth=2;html=1;rotation=45;" vertex="1" parent="244">
                    <mxGeometry x="-4.9224580052190845" y="19.612541994780912" width="60" height="10.93" as="geometry"/>
                </mxCell>
                <mxCell id="253" value="" style="shape=step;perimeter=stepPerimeter;whiteSpace=wrap;html=1;fixedSize=1;fontSize=9;size=18;rotation=-181;fillColor=#bac8d3;strokeColor=#23445d;" vertex="1" parent="271">
                    <mxGeometry x="8" y="176.01999999999998" width="23" height="42" as="geometry"/>
                </mxCell>
            </root>
        </mxGraphModel>
    </diagram>
</mxfile>